<svg version="1.1" id="Layer_1" xmlns="http://www.w3.org/2000/svg" xmlns:xlink="http://www.w3.org/1999/xlink" x="0px" y="0px"
	 width="100%" viewBox="0 0 222 222" enable-background="new 0 0 222 222" xml:space="preserve">
<path fill="#F2F1EE" opacity="1.000000" stroke="none" 
	d="
M128.000000,223.000000 
	C85.333336,223.000000 43.166672,223.000000 1.000006,223.000000 
	C1.000004,149.000000 1.000004,75.000015 1.000002,1.000016 
	C74.999992,1.000010 148.999985,1.000010 222.999969,1.000005 
	C222.999985,74.999985 222.999985,148.999969 223.000000,222.999969 
	C191.500000,223.000000 160.000000,223.000000 128.000000,223.000000 
M138.146729,86.332809 
	C137.337158,87.754219 136.541901,89.184006 135.715515,90.595566 
	C132.521759,96.050858 129.318085,101.500320 125.818260,106.343903 
	C120.096565,97.774025 111.927734,92.096413 102.998520,87.462471 
	C94.001678,82.793434 84.677979,78.741638 75.772873,73.911690 
	C65.061005,68.101784 54.843510,61.471790 47.865837,51.060768 
	C43.016926,43.825951 41.816250,36.379120 47.327271,28.813869 
	C47.585960,28.458748 47.460793,27.823997 47.604362,26.472670 
	C42.239857,30.900806 39.514526,35.954178 38.142506,41.671261 
	C34.321552,57.592834 39.716694,70.599251 52.714474,79.605598 
	C62.752571,86.561134 73.931160,91.926765 84.815491,97.590324 
	C97.413414,104.145546 109.754440,110.944016 119.148941,122.635551 
	C119.224190,123.060577 119.299438,123.485611 118.960419,124.522652 
	C116.921654,129.062668 114.969749,133.644226 112.823692,138.132935 
	C109.639572,144.792847 106.317940,151.387009 102.583870,157.420929 
	C92.532005,158.900650 82.724899,158.354095 73.239967,154.276733 
	C52.151745,145.211349 38.831406,128.719864 29.273621,108.585365 
	C28.563242,107.088875 27.870806,105.583870 27.170025,104.082825 
	C26.423376,111.139183 26.783770,117.824738 26.308350,124.450302 
	C25.933914,129.668549 27.887089,133.375717 31.481241,136.731384 
	C51.745464,155.651077 75.289101,163.828461 103.471306,159.192017 
	C101.966133,164.617676 100.375191,170.021973 99.014473,175.483612 
	C98.662636,176.895828 99.032784,178.487915 98.499039,180.066559 
	C98.183151,180.482132 97.867256,180.897705 97.551361,181.313278 
	C98.047142,181.190186 98.542923,181.067093 99.511162,180.402039 
	C100.049896,178.517288 100.514984,176.607697 101.140495,174.752197 
	C103.474464,167.828857 105.861031,160.923248 108.624542,154.403976 
	C110.187439,157.511765 111.605362,156.191101 113.737961,154.113998 
	C129.186676,148.551346 136.425629,126.703262 128.061203,110.297134 
	C128.052048,109.878685 128.042892,109.460236 128.559128,108.600410 
	C132.063080,101.613312 135.567032,94.626213 139.182312,87.625038 
	C139.182312,87.625038 139.224167,87.496605 139.598007,86.751503 
	C139.683701,86.487167 139.769409,86.222839 140.021484,85.544914 
	C140.021484,85.544914 140.111938,85.108406 140.657486,85.509613 
	C150.500137,108.109787 160.342804,130.709961 170.377563,153.751236 
	C166.108826,154.726410 162.586258,155.531113 158.652283,156.296448 
	C158.471863,156.406998 158.291443,156.517548 158.111008,156.628098 
	C158.428726,156.640152 158.746429,156.652206 159.894073,156.943542 
	C161.712570,156.847046 163.662964,157.140732 165.324203,156.579086 
	C169.857819,155.046280 171.706116,156.854706 173.383224,161.064102 
	C179.602158,176.673187 186.232269,192.119431 192.826218,207.576385 
	C193.389755,208.897354 194.762405,210.733231 195.869537,210.813828 
	C200.743729,211.168610 205.658432,210.966995 211.392365,210.966995 
	C190.824432,162.398895 170.633545,114.721146 150.442673,67.043404 
	C149.876694,66.959030 149.310715,66.874649 148.744736,66.790268 
	C145.733948,72.765778 142.723145,78.741280 139.281052,85.037163 
	C139.079193,85.335831 138.877335,85.634491 138.146729,86.332809 
M97.315536,185.310806 
	C94.649185,191.942657 93.778511,198.705261 96.825401,205.384583 
	C100.285561,212.969879 109.319641,214.621582 114.829018,208.451736 
	C117.512955,205.446045 119.404564,201.568192 121.033661,197.815475 
	C126.349167,185.570908 131.326920,173.104675 143.109650,165.365326 
	C147.270203,162.632507 151.888458,160.596527 156.297745,158.242401 
	C156.134552,157.826035 155.971359,157.409668 155.808167,156.993301 
	C152.197754,158.571930 148.440750,159.884277 145.003281,161.776978 
	C132.608612,168.601608 126.387398,180.307220 120.984047,192.644089 
	C118.993767,197.188263 117.051338,201.809418 114.480148,206.025299 
	C112.454819,209.346161 108.946716,210.785629 104.917915,209.821381 
	C100.955009,208.872925 98.261810,206.295303 98.017006,202.263031 
	C97.668716,196.526367 97.961372,190.750763 98.083984,184.865540 
	C98.083984,184.865540 98.139610,184.792953 98.139610,184.792953 
	C98.139610,184.792953 98.007851,185.019836 97.315536,185.310806 
M88.890533,19.307142 
	C107.379135,24.893120 119.286003,37.977333 128.574493,54.315437 
	C129.012589,49.371174 128.688019,44.599712 129.104233,39.893764 
	C129.517105,35.225662 127.762733,31.823393 124.410866,28.987938 
	C106.647949,13.961683 86.246635,12.694508 64.691887,17.424715 
	C72.489807,17.982872 80.287727,18.541031 88.890533,19.307142 
z"/>
<path fill="#CC6EE6" opacity="1.000000" stroke="none" 
	d="
M159.063690,156.335831 
	C162.586258,155.531113 166.108826,154.726410 170.377563,153.751236 
	C160.342804,130.709961 150.500137,108.109787 140.284088,85.211273 
	C139.910690,84.912941 139.712357,84.716789 139.712357,84.716789 
	C142.723145,78.741280 145.733948,72.765778 148.744736,66.790268 
	C149.310715,66.874649 149.876694,66.959030 150.442673,67.043404 
	C170.633545,114.721146 190.824432,162.398895 211.392365,210.966995 
	C205.658432,210.966995 200.743729,211.168610 195.869537,210.813828 
	C194.762405,210.733231 193.389755,208.897354 192.826218,207.576385 
	C186.232269,192.119431 179.602158,176.673187 173.383224,161.064102 
	C171.706116,156.854706 169.857819,155.046280 165.324203,156.579086 
	C163.662964,157.140732 161.712570,156.847046 159.477875,156.722458 
	C159.061661,156.501373 159.063690,156.335831 159.063690,156.335831 
z"/>
<path fill="#8E55FF" opacity="1.000000" stroke="none" 
	d="
M119.120567,121.990601 
	C109.754440,110.944016 97.413414,104.145546 84.815491,97.590324 
	C73.931160,91.926765 62.752571,86.561134 52.714474,79.605598 
	C39.716694,70.599251 34.321552,57.592834 38.142506,41.671261 
	C39.514526,35.954178 42.239857,30.900806 47.604362,26.472670 
	C47.460793,27.823997 47.585960,28.458748 47.327271,28.813869 
	C41.816250,36.379120 43.016926,43.825951 47.865837,51.060768 
	C54.843510,61.471790 65.061005,68.101784 75.772873,73.911690 
	C84.677979,78.741638 94.001678,82.793434 102.998520,87.462471 
	C111.927734,92.096413 120.096565,97.774025 125.969063,106.899849 
	C126.150398,107.621353 126.180931,107.786911 126.146927,108.330536 
	C123.761787,113.135933 121.441177,117.563271 119.120567,121.990601 
z"/>
<path fill="#9058FE" opacity="1.000000" stroke="none" 
	d="
M102.935600,158.699371 
	C75.289101,163.828461 51.745464,155.651077 31.481241,136.731384 
	C27.887089,133.375717 25.933914,129.668549 26.308350,124.450302 
	C26.783770,117.824738 26.423376,111.139183 27.170025,104.082825 
	C27.870806,105.583870 28.563242,107.088875 29.273621,108.585365 
	C38.831406,128.719864 52.151745,145.211349 73.239967,154.276733 
	C82.724899,158.354095 92.532005,158.900650 102.766296,157.883423 
	C102.948730,158.345901 102.935600,158.699371 102.935600,158.699371 
z"/>
<path fill="#9058FE" opacity="1.000000" stroke="none" 
	d="
M88.488091,19.203167 
	C80.287727,18.541031 72.489807,17.982872 64.691887,17.424715 
	C86.246635,12.694508 106.647949,13.961683 124.410866,28.987938 
	C127.762733,31.823393 129.517105,35.225662 129.104233,39.893764 
	C128.688019,44.599712 129.012589,49.371174 128.574493,54.315437 
	C119.286003,37.977333 107.379135,24.893120 88.488091,19.203167 
z"/>
<path fill="#9058FE" opacity="1.000000" stroke="none" 
	d="
M128.048218,110.923866 
	C136.425629,126.703262 129.186676,148.551346 113.121765,154.001617 
	C113.662010,152.851746 114.742119,151.710678 115.987000,150.793198 
	C125.533554,143.757431 127.147911,135.966675 121.137695,125.232147 
	C121.012062,124.682152 120.955978,124.364555 121.092308,123.724396 
	C123.519379,119.246010 125.783798,115.084938 128.048218,110.923866 
z"/>
<path fill="#D283E7" opacity="1.000000" stroke="none" 
	d="
M97.980186,184.991806 
	C97.961372,190.750763 97.668716,196.526367 98.017006,202.263031 
	C98.261810,206.295303 100.955009,208.872925 104.917915,209.821381 
	C108.946716,210.785629 112.454819,209.346161 114.480148,206.025299 
	C117.051338,201.809418 118.993767,197.188263 120.984047,192.644089 
	C126.387398,180.307220 132.608612,168.601608 145.003281,161.776978 
	C148.440750,159.884277 152.197754,158.571930 155.808167,156.993301 
	C155.971359,157.409668 156.134552,157.826035 156.297745,158.242401 
	C151.888458,160.596527 147.270203,162.632507 143.109650,165.365326 
	C131.326920,173.104675 126.349167,185.570908 121.033661,197.815475 
	C119.404564,201.568192 117.512955,205.446045 114.829018,208.451736 
	C109.319641,214.621582 100.285561,212.969879 96.825401,205.384583 
	C93.778511,198.705261 94.649185,191.942657 97.657219,185.155945 
	C97.998901,185.001083 97.980186,184.991806 97.980186,184.991806 
z"/>
<path fill="#EFEBEE" opacity="1.000000" stroke="none" 
	d="
M121.177475,125.469803 
	C127.147911,135.966675 125.533554,143.757431 115.987000,150.793198 
	C114.742119,151.710678 113.662010,152.851746 112.754456,154.074951 
	C111.605362,156.191101 110.187439,157.511765 108.502747,153.865814 
	C112.646454,144.041687 116.911964,134.755753 121.177475,125.469803 
z"/>
<path fill="#D186E8" opacity="1.000000" stroke="none" 
	d="
M121.137695,125.232147 
	C116.911964,134.755753 112.646454,144.041687 108.304398,153.669312 
	C105.861031,160.923248 103.474464,167.828857 101.140495,174.752197 
	C100.514984,176.607697 100.049896,178.517288 99.300453,180.437286 
	C99.089745,180.472549 99.071289,179.997375 99.071289,179.997375 
	C99.032784,178.487915 98.662636,176.895828 99.014473,175.483612 
	C100.375191,170.021973 101.966133,164.617676 103.203453,158.945694 
	C102.935600,158.699371 102.948730,158.345901 103.001785,158.177521 
	C106.317940,151.387009 109.639572,144.792847 112.823692,138.132935 
	C114.969749,133.644226 116.921654,129.062668 119.424973,124.237465 
	C120.236229,123.982086 120.582947,124.011894 120.929657,124.041702 
	C120.955978,124.364555 121.012062,124.682152 121.137695,125.232147 
z"/>
<path fill="#D38AE8" opacity="1.000000" stroke="none" 
	d="
M126.211456,107.952469 
	C126.180931,107.786911 126.150398,107.621353 126.118988,107.203873 
	C129.318085,101.500320 132.521759,96.050858 135.715515,90.595566 
	C136.541901,89.184006 137.337158,87.754219 138.707306,86.142639 
	C139.463638,85.954483 139.659378,85.956497 139.855133,85.958504 
	C139.769409,86.222839 139.683701,86.487167 139.399231,87.151756 
	C139.200439,87.552010 139.070984,87.639114 139.070984,87.639114 
	C135.567032,94.626213 132.063080,101.613312 128.135651,108.591324 
	C127.211937,108.372307 126.711693,108.162392 126.211456,107.952469 
z"/>
<path fill="#C068EA" opacity="1.000000" stroke="none" 
	d="
M126.146927,108.330536 
	C126.711693,108.162392 127.211937,108.372307 127.872955,108.812012 
	C128.042892,109.460236 128.052048,109.878685 128.054718,110.610504 
	C125.783798,115.084938 123.519379,119.246010 121.092308,123.724396 
	C120.582947,124.011894 120.236229,123.982086 119.632095,123.931458 
	C119.299438,123.485611 119.224190,123.060577 119.134750,122.313080 
	C121.441177,117.563271 123.761787,113.135933 126.146927,108.330536 
z"/>
<path fill="#F1F0EE" opacity="1.000000" stroke="none" 
	d="
M98.785164,180.031967 
	C99.071289,179.997375 99.089745,180.472549 99.064224,180.708282 
	C98.542923,181.067093 98.047142,181.190186 97.551361,181.313278 
	C97.867256,180.897705 98.183151,180.482132 98.785164,180.031967 
z"/>
<path fill="#D283E7" opacity="1.000000" stroke="none" 
	d="
M158.857986,156.316132 
	C159.063690,156.335831 159.061661,156.501373 159.062897,156.582825 
	C158.746429,156.652206 158.428726,156.640152 158.111008,156.628113 
	C158.291443,156.517548 158.471863,156.406998 158.857986,156.316132 
z"/>
<path fill="#CC6EE6" opacity="1.000000" stroke="none" 
	d="
M139.126648,87.632080 
	C139.070984,87.639114 139.200439,87.552010 139.212311,87.524307 
	C139.224167,87.496605 139.182312,87.625038 139.126648,87.632080 
z"/>
<path fill="#CC6EE6" opacity="1.000000" stroke="none" 
	d="
M139.938309,85.751709 
	C139.659378,85.956497 139.463638,85.954483 138.971680,85.942810 
	C138.877335,85.634491 139.079193,85.335831 139.496704,84.876976 
	C139.712357,84.716789 139.910690,84.912941 140.011322,85.010674 
	C140.111938,85.108406 140.021484,85.544914 139.938309,85.751709 
z"/>
<path fill="#D283E7" opacity="1.000000" stroke="none" 
	d="
M98.003372,185.010468 
	C98.007851,185.019836 98.139610,184.792953 98.139610,184.792953 
	C98.139610,184.792953 98.083984,184.865540 98.032089,184.928680 
	C97.980186,184.991806 97.998901,185.001083 98.003372,185.010468 
z"/>
</svg>